# xmcd CD database file
#
# Track frame offsets:
#	150
#	20195
#	38488
#	56870
#	79214
#	82464
#	102767
#	119972
#	135113
#	153963
#
# Disc length: 2302 seconds
#
# Revision: 0
# Processed by: cddbd v1.5.2PL0 Copyright (c) Steve Scherf et al.
# Submitted via: CDex 1.70beta2
#
DISCID=8508fc0a
DTITLE=Owen Plant - Beach Busker
DYEAR=2012
DGENRE=Jazz
TTITLE0=Wanna go back
TTITLE1=Shoulda coulda woulda
TTITLE2=Hawaii
TTITLE3=This side of happy
TTITLE4=In di middle ah di road
TTITLE5=Walking with a poison
TTITLE6=Hey now
TTITLE7=This boy loves you
TTITLE8=Raise it up high
TTITLE9=One and only
EXTD=YEAR: 2012
EXTT0=
EXTT1=
EXTT2=
EXTT3=
EXTT4=
EXTT5=
EXTT6=
EXTT7=
EXTT8=
EXTT9=
PLAYORDER=
